<svg width="201" height="62" class="header-logo-icon header-logo-icon--desktop" viewBox="0 0 201 62" fill="none" xmlns="http://www.w3.org/2000/svg">
    <path d="M10.514 12.053v28.812L0 61.96h70.29l-3.773-49.906L43.285 0 10.514 12.053Z" fill="#C1C1C1"></path>
    <path class="logo-letters" d="M86.212 30.216c-.509-.248-.933-.578-1.23-1.073-.338-.454-.466-.99-.466-1.651 0-.62.17-1.197.467-1.651.339-.454.72-.826 1.23-1.074a3.5 3.5 0 0 1 1.568-.371h.636v.743h-.636c-.382 0-.721.082-1.103.248a2.108 2.108 0 0 0-.932.784 2.18 2.18 0 0 0-.382 1.28c0 .495.127.949.382 1.28.254.37.55.618.932.783.382.166.764.248 1.103.248h.636v.743h-.636c-.509.083-1.06-.041-1.569-.289Zm1.865-6.646h.806v7.884h-.805V23.57Zm.51 6.275h.635c.382 0 .763-.083 1.102-.248.34-.165.679-.413.933-.784.254-.33.382-.785.382-1.28s-.128-.95-.382-1.28c-.254-.33-.551-.619-.933-.784a2.824 2.824 0 0 0-1.102-.248h-.636v-.743h.636c.551 0 1.06.124 1.569.372.508.248.932.578 1.23 1.073.296.496.466 1.032.466 1.651 0 .62-.17 1.156-.467 1.651-.339.454-.72.826-1.23 1.074a3.502 3.502 0 0 1-1.568.371h-.636v-.825Zm7.037.908a3.622 3.622 0 0 1-1.315-1.321c-.339-.578-.466-1.156-.466-1.858 0-.701.17-1.32.466-1.857.297-.537.764-.99 1.315-1.321a3.444 3.444 0 0 1 1.823-.495c.678 0 1.272.165 1.823.495.55.33.975.743 1.314 1.32.339.579.466 1.157.466 1.858 0 .702-.169 1.321-.466 1.858-.297.537-.763.99-1.314 1.32a3.444 3.444 0 0 1-1.823.496 3.552 3.552 0 0 1-1.823-.495Zm3.264-.66a2.684 2.684 0 0 0 1.017-1.033 2.88 2.88 0 0 0 .382-1.486 2.88 2.88 0 0 0-.382-1.486c-.254-.413-.593-.784-1.017-1.032a2.724 2.724 0 0 0-1.399-.371c-.509 0-.975.124-1.399.371a2.685 2.685 0 0 0-1.017 1.032c-.255.413-.382.908-.382 1.486s.127 1.032.382 1.486c.254.413.593.785 1.017 1.032.424.248.89.372 1.399.372s.975-.124 1.399-.372Zm7.419-2.89c.297-.248.424-.578.424-1.032 0-.413-.127-.743-.424-.99-.297-.248-.678-.372-1.229-.372h-1.484l.127-.124v6.44h-.805v-7.06h2.246c.509 0 .933.083 1.315.248.381.165.636.413.848.702.212.33.296.702.296 1.156 0 .454-.084.825-.296 1.156-.212.33-.509.577-.848.743a3.172 3.172 0 0 1-1.272.247h-1.569v-.743h1.526c.467 0 .848-.123 1.145-.371Zm2.205-3.137h.89l2.84 5.283-.593.537-3.137-5.82Zm1.229 6.315h.763c.254 0 .466-.082.594-.206.127-.124.296-.29.381-.495l.212-.537.085-.083 2.162-4.994h.89l-2.543 5.737c-.212.496-.467.826-.763 1.032-.297.207-.679.29-1.145.29h-.678v-.744h.042Zm2.459-1.733v.454h-.509v-.454h.509Zm4.112-4.582h.806l3.179 5.16h-.848l3.095-5.16h.806v7.1h-.806v-6.729h.678l-3.01 5.036h-.678l-3.095-5.036h.679v6.687h-.806v-7.058Zm1.314 1.073v.537h-.89v-.537h.89Zm2.671 3.343v.537h-.848v-.537h.848Zm2.586-3.343v.537h-.89v-.537h.89ZM84.94 42.723v-7.1h.806v7.1h-.806Zm.636-3.302v-.743h4.452v.743h-4.452Zm5.13-3.797v7.1H89.9v-7.1h.806Zm2.883 6.315h4.197v.743H92.91v-7.058h4.791v.743h-4.112l.127-.124v5.82l-.127-.124Zm3.222-3.22v.743h-3.222v-.743h3.222Zm9.072 5.408h-.763V42.6l.127.123h-5.765l.127-.123v1.527h-.763V41.98h7.037v2.147Zm-5.977-2.683c.127-.248.254-.537.296-.867.043-.33.085-.784.085-1.28v-3.632h4.663v6.563h-.805v-5.985l.127.124h-3.519l.297-.454v3.508c0 .702-.085 1.28-.212 1.693-.127.412-.339.743-.593.908h-.933a1.95 1.95 0 0 0 .594-.578Zm11.658-2.27c.254.123.466.33.636.577.169.248.254.578.254.95 0 .454-.085.825-.296 1.114a2.153 2.153 0 0 1-.891.702c-.381.165-.805.248-1.314.248h-2.459v-7.141h2.332c.466 0 .848.082 1.187.206.339.165.593.372.805.62.212.247.297.577.297.948a1.594 1.594 0 0 1-.721 1.363 2.123 2.123 0 0 1-.72.247l.127-.123c.254.04.509.123.763.288Zm-.678-2.518c-.255-.207-.636-.29-1.103-.29h-1.441v2.27h1.441c.467 0 .848-.082 1.103-.288.254-.206.381-.495.381-.867 0-.33-.127-.62-.381-.825Zm.296 4.953c.297-.206.467-.537.467-.95 0-.412-.17-.701-.467-.949-.296-.206-.72-.33-1.229-.33h-1.611v2.56h1.611c.509 0 .933-.083 1.229-.331Zm-.084-2.848v.412h-.551v-.412h.551Zm3.9 2.89h-.127l4.366-6.027h.806v7.1h-.806v-6.027h.17l-4.367 6.026h-.805v-7.1h.805v6.027h-.042Zm.466-.331v.537h-.89v-.537h.89Zm4.155-4.87v.536h-.89v-.537h.89Zm2.798 6.273H121.4l3.179-3.715-3.095-3.384h1.018l3.137 3.426-3.222 3.673Zm4.621-4.045v.743h-2.077v-.743h2.077Zm-1.399 4.045v-7.1h.805v7.1h-.805Zm3.943-7.1h1.017l-3.137 3.385 3.18 3.715h-1.018l-3.222-3.673 3.18-3.426Zm3.306 6.027h-.127l4.367-6.026h.805v7.1h-.805v-6.027h.169l-4.366 6.026h-.806v-7.1h.806v6.027h-.043Zm.467-.33v.537h-.891v-.537h.891Zm4.154-4.87v.536h-.89v-.537h.89Zm2.586-.826h.806l3.18 5.16h-.848l3.094-5.16h.806v7.1h-.806v-6.729h.679l-3.01 5.036h-.679l-3.094-5.036h.678v6.687h-.806v-7.058Zm1.315 1.073v.536h-.891v-.536h.891Zm2.671 3.343v.537h-.891v-.537h.891Zm2.586-3.343v.536h-.891v-.536h.891Zm4.027 5.614a3.622 3.622 0 0 1-1.314-1.321c-.339-.578-.466-1.156-.466-1.858 0-.701.169-1.32.466-1.857.297-.537.763-.991 1.314-1.321a3.445 3.445 0 0 1 1.823-.495c.678 0 1.272.165 1.823.495.551.33.975.743 1.314 1.32.339.579.467 1.157.467 1.858 0 .702-.17 1.321-.467 1.858-.297.536-.763.99-1.314 1.32a3.445 3.445 0 0 1-1.823.496 3.553 3.553 0 0 1-1.823-.495Zm3.264-.66a2.683 2.683 0 0 0 1.018-1.033c.254-.454.381-.908.381-1.486s-.127-1.032-.381-1.486a2.683 2.683 0 0 0-1.018-1.032 2.72 2.72 0 0 0-1.399-.371c-.508 0-.975.124-1.399.371a2.68 2.68 0 0 0-1.017 1.032c-.254.413-.382.908-.382 1.486s.128 1.032.382 1.486c.254.413.593.785 1.017 1.032.424.248.891.372 1.399.372a2.72 2.72 0 0 0 1.399-.372Zm8.607-5.037c-.382-.206-.806-.289-1.272-.289a2.88 2.88 0 0 0-1.442.372 3.127 3.127 0 0 0-1.06 1.032 2.884 2.884 0 0 0-.381 1.486c0 .578.127 1.032.381 1.486.255.454.594.784 1.06 1.032a2.88 2.88 0 0 0 1.442.371c.508 0 .932-.082 1.272-.289a3.77 3.77 0 0 0 .975-.866l.593.495a3.282 3.282 0 0 1-.636.701c-.254.207-.551.372-.932.537-.382.165-.806.207-1.272.207a3.443 3.443 0 0 1-1.823-.496c-.551-.33-1.018-.743-1.357-1.32a3.505 3.505 0 0 1-.509-1.858c0-.702.17-1.321.509-1.858.339-.536.806-.99 1.357-1.32a3.552 3.552 0 0 1 1.823-.496 4.1 4.1 0 0 1 1.272.206c.381.124.678.33.932.537.255.206.467.454.636.702l-.593.495c-.297-.413-.636-.66-.975-.867Zm2.416-.99h5.893v.743h-5.893v-.743Zm3.349 7.1h-.805V36.16h.805v6.563Zm4.918-1.074h-.127l4.366-6.026h.806v7.1h-.806v-6.027h.17l-4.367 6.026h-.848v-7.1h.806v6.027Zm.466-.33v.537h-.89v-.537h.89Zm4.155-4.87v.536h-.89v-.537h.89Zm-86.4 19.235h-1.272V53.91l.466.371H84.94l.467-.371v1.775h-1.272v-2.642h7.334v2.642Zm-6.402-3.179c.128-.247.212-.536.255-.866.042-.33.085-.743.085-1.197v-3.261h5.13v6.191H89.18v-5.325l.424.372h-3.52l.594-.66v2.93c0 .66-.042 1.156-.17 1.569-.126.413-.296.702-.55.867h-1.442c.255-.165.424-.372.551-.62Zm12.295-1.816c.254.124.424.33.593.578.17.248.255.578.255.908 0 .413-.085.785-.297 1.115-.212.33-.509.536-.89.701-.382.166-.806.248-1.314.248h-2.841v-7.1h2.67c.467 0 .849.083 1.23.248.34.165.636.371.806.62.17.288.297.577.297.948 0 .33-.085.62-.212.826a1.444 1.444 0 0 1-.51.495 2.03 2.03 0 0 1-.635.248l.127-.124c.212.083.466.165.72.29Zm-1.23-2.146c-.212-.165-.466-.248-.805-.248h-1.145v1.734h1.145c.34 0 .636-.083.805-.207.17-.165.297-.371.297-.66a.735.735 0 0 0-.297-.62Zm.34 4.293c.254-.166.339-.413.339-.743s-.128-.578-.34-.743c-.254-.166-.55-.248-.932-.248h-1.357v1.981h1.357c.381.042.678-.041.933-.247Zm.424-2.6v.494h-.594v-.495h.593Zm4.069 2.31h-.212l3.774-5.365h1.356v7.1h-1.356v-5.367h.254l-3.816 5.366h-1.314v-7.1h1.314v5.367Zm.509-.453v.578h-.975v-.578h.975Zm3.561-3.344v.62h-.975v-.62h.975Zm3.604 5.531h-1.611l2.798-3.715-2.713-3.385h1.611l2.713 3.427-2.798 3.673Zm4.706-4.251v1.114h-2.671V50.03h2.671Zm-1.951 4.251v-7.1h1.357v7.1h-1.357Zm4.028-7.1h1.611l-2.713 3.344 2.798 3.715h-1.611l-2.798-3.674 2.713-3.385Zm3.731 5.862h4.197v1.238h-5.13v-7.1h5.045v1.239h-4.112l.424-.372v5.366l-.424-.371Zm3.222-2.972v1.197h-2.968v-1.197h2.968Zm2.628 4.21v-7.1h1.357v7.1h-1.357Zm1.187-3.013V50.03h3.858v1.238h-3.858Zm5.003-4.087v7.1h-1.357v-7.1h1.357Zm3.222 5.367h-.212l3.773-5.367h1.356v7.1h-1.356v-5.366h.254l-3.815 5.366H133.1v-7.1h1.315v5.367Zm.508-.454v.578h-.975v-.578h.975Zm3.561-3.344v.62h-.975v-.62h.975Zm3.646 4.293h4.197v1.238h-5.129v-7.1h5.045v1.239h-4.113l.424-.372v5.366l-.424-.371Zm3.222-2.972v1.197h-2.967v-1.197h2.967Z" fill="#1B1B1D"></path>
</svg>